<svg xmlns="http://www.w3.org/2000/svg" width="118.082" height="123.901" viewBox="0 0 118.082 123.901"><path d="M1409.065,145.344a21.051,21.051,0,1,1,0-42.1Z" transform="translate(-1388.013 -83.439)"/><path d="M1428.244,110.695a8.059,8.059,0,1,1-8.058-8.058,8.058,8.058,0,0,1,8.058,8.058" transform="translate(-1388.013 -83.439)"/><path d="M1455.291,91.774a8.336,8.336,0,1,1-8.336-8.335,8.336,8.336,0,0,1,8.336,8.335" transform="translate(-1388.013 -83.439)"/><path d="M1412.746,140.564V145.4a29.292,29.292,0,0,0,15.339-4.033v-5.651a28.624,28.624,0,0,1-15.339,4.843" transform="translate(-1388.013 -83.439)"/><path d="M1486.828,145.344a21.051,21.051,0,1,1,0-42.1Z" transform="translate(-1388.013 -83.439)"/><path d="M1506.095,110.695a8.058,8.058,0,1,1-8.058-8.058,8.058,8.058,0,0,1,8.058,8.058" transform="translate(-1388.013 -83.439)"/><path d="M1490.51,140.564V145.4a29.291,29.291,0,0,0,15.338-4.033v-5.651a28.621,28.621,0,0,1-15.338,4.843" transform="translate(-1388.013 -83.439)"/><path d="M1415.008,171.3a6.083,6.083,0,0,0,3.034.723,6.761,6.761,0,0,0,2.167-.345,4.608,4.608,0,0,0,1.7-.972l-.786-1.8a5.863,5.863,0,0,1-1.5.843,4.454,4.454,0,0,1-1.533.266,2.918,2.918,0,0,1-2.359-.988,4.345,4.345,0,0,1-.836-2.881,4.278,4.278,0,0,1,.836-2.865,2.939,2.939,0,0,1,2.359-.972,4.477,4.477,0,0,1,1.533.265,5.918,5.918,0,0,1,1.5.842l.786-1.8a4.62,4.62,0,0,0-1.7-.971,6.733,6.733,0,0,0-2.167-.345,6.083,6.083,0,0,0-3.034.722,4.893,4.893,0,0,0-1.974,2.039,6.534,6.534,0,0,0-.691,3.082,6.62,6.62,0,0,0,.691,3.106,4.875,4.875,0,0,0,1.974,2.046" transform="translate(-1388.013 -83.439)"/><path d="M1424.961,171.494a4.775,4.775,0,0,0,2.28.514,4.7,4.7,0,0,0,2.246-.514,3.573,3.573,0,0,0,1.486-1.469,5.115,5.115,0,0,0,0-4.5,3.638,3.638,0,0,0-1.486-1.469,4.643,4.643,0,0,0-2.246-.521,4.718,4.718,0,0,0-2.28.521,3.624,3.624,0,0,0-1.485,1.469,5.115,5.115,0,0,0,0,4.5,3.559,3.559,0,0,0,1.485,1.469m.891-5.514a1.708,1.708,0,0,1,1.389-.586,1.669,1.669,0,0,1,1.364.586,3.594,3.594,0,0,1,0,3.6,1.666,1.666,0,0,1-1.364.586,1.7,1.7,0,0,1-1.4-.586,2.806,2.806,0,0,1-.482-1.806,2.753,2.753,0,0,1,.49-1.79" transform="translate(-1388.013 -83.439)"/><path d="M1439.183,164.054a4.643,4.643,0,0,0-2.247-.521,4.721,4.721,0,0,0-2.28.521,3.627,3.627,0,0,0-1.484,1.469,5.115,5.115,0,0,0,0,4.5,3.562,3.562,0,0,0,1.484,1.469,4.778,4.778,0,0,0,2.28.514,4.7,4.7,0,0,0,2.247-.514,3.558,3.558,0,0,0,1.485-1.469,5.115,5.115,0,0,0,0-4.5,3.623,3.623,0,0,0-1.485-1.469m-.883,5.522a1.664,1.664,0,0,1-1.364.586,1.7,1.7,0,0,1-1.4-.586,2.806,2.806,0,0,1-.483-1.806,2.753,2.753,0,0,1,.49-1.79,1.714,1.714,0,0,1,1.389-.586,1.667,1.667,0,0,1,1.364.586,3.595,3.595,0,0,1,0,3.6" transform="translate(-1388.013 -83.439)"/><path d="M1450.869,165.579a3.659,3.659,0,0,0-1.276-1.509,3.308,3.308,0,0,0-1.87-.538,3.132,3.132,0,0,0-1.742.482,2.343,2.343,0,0,0-.928,1.116l-.155-1.389h-2.28c.053.385.089.773.1,1.164s.024.778.024,1.164v9.279h2.423v-4.659a2.289,2.289,0,0,0,.812.854,3.224,3.224,0,0,0,1.742.465,3.422,3.422,0,0,0,1.87-.514,3.512,3.512,0,0,0,1.276-1.461,4.968,4.968,0,0,0,.465-2.215,5.13,5.13,0,0,0-.465-2.239m-2.456,3.981a1.894,1.894,0,0,1-2.777-.008,2.8,2.8,0,0,1-.482-1.766,2.838,2.838,0,0,1,.482-1.774,1.664,1.664,0,0,1,1.4-.617,1.628,1.628,0,0,1,1.373.642,2.878,2.878,0,0,1,.489,1.781,2.736,2.736,0,0,1-.481,1.742" transform="translate(-1388.013 -83.439)"/><path d="M1454.537,171.494a5.024,5.024,0,0,0,2.352.514,5.752,5.752,0,0,0,1.718-.265,4.447,4.447,0,0,0,1.444-.731l-.643-1.637a4.19,4.19,0,0,1-1.156.594,3.954,3.954,0,0,1-1.267.209,2.079,2.079,0,0,1-1.645-.609,2.6,2.6,0,0,1-.516-1.558h5.371v-.353a4.959,4.959,0,0,0-.45-2.192,3.331,3.331,0,0,0-1.284-1.428,3.736,3.736,0,0,0-1.974-.506,3.95,3.95,0,0,0-2.079.538,3.794,3.794,0,0,0-1.4,1.5,4.627,4.627,0,0,0-.514,2.215,4.541,4.541,0,0,0,.529,2.247,3.592,3.592,0,0,0,1.518,1.461m2.015-6.26a1.413,1.413,0,0,1,1.179.521,2.026,2.026,0,0,1,.372,1.052h-3.228a2.26,2.26,0,0,1,.384-.971,1.527,1.527,0,0,1,1.293-.6" transform="translate(-1388.013 -83.439)"/><path d="M1461.72,166.068v5.811h2.424v-4.253a2.244,2.244,0,0,1,.232-1.052,1.66,1.66,0,0,1,.659-.682,2.175,2.175,0,0,1,1.084-.241,2.823,2.823,0,0,1,1.187.273l.017-2.215a2.485,2.485,0,0,0-.378-.113,2.263,2.263,0,0,0-.489-.048,2.65,2.65,0,0,0-1.661.562,2.324,2.324,0,0,0-.754,1.051l-.17-1.42h-2.279q.079.578.1,1.163t.023,1.164" transform="translate(-1388.013 -83.439)"/><path d="M1469.457,171.494a3.46,3.46,0,0,0,1.878.514,3.243,3.243,0,0,0,1.735-.465,2.342,2.342,0,0,0,.833-.867v1.2h2.393v-8.138H1473.9v1.145a2.441,2.441,0,0,0-.833-.872,3.159,3.159,0,0,0-1.735-.482,3.313,3.313,0,0,0-1.87.538,3.6,3.6,0,0,0-1.268,1.509,5.2,5.2,0,0,0-.457,2.239,5.108,5.108,0,0,0,.449,2.215,3.4,3.4,0,0,0,1.268,1.461m1.2-5.457a1.827,1.827,0,0,1,2.76-.025,2.8,2.8,0,0,1,.489,1.774,2.766,2.766,0,0,1-.489,1.766,1.659,1.659,0,0,1-1.372.61,1.708,1.708,0,0,1-1.405-.6,2.707,2.707,0,0,1-.49-1.742,2.8,2.8,0,0,1,.507-1.781" transform="translate(-1388.013 -83.439)"/><path d="M1482.7,171.96a3.132,3.132,0,0,0,.675-.177v-1.862c-.161.032-.3.057-.426.073a2.924,2.924,0,0,1-.377.023,1.624,1.624,0,0,1-.627-.119.989.989,0,0,1-.465-.41,1.465,1.465,0,0,1-.177-.771v-3.162h2.072v-1.814H1481.3v-2.7l-2.423.786v1.911h-1.542v1.814h1.542v3.211a3.379,3.379,0,0,0,.794,2.384,2.985,2.985,0,0,0,2.3.858,5.128,5.128,0,0,0,.722-.048" transform="translate(-1388.013 -83.439)"/><rect width="2.617" height="2.279" transform="translate(96.501 76.481)"/><rect width="2.424" height="8.139" transform="translate(96.598 80.301)"/><path d="M1492.5,169.05l-2.1-5.293h-2.521l3.548,8.123h2.039l3.579-8.123h-2.391Z" transform="translate(-1388.013 -83.439)"/><path d="M1503.456,163.741v1.145a2.448,2.448,0,0,0-.834-.873,3.163,3.163,0,0,0-1.734-.481,3.308,3.308,0,0,0-1.87.538,3.6,3.6,0,0,0-1.268,1.509,5.2,5.2,0,0,0-.458,2.239,5.108,5.108,0,0,0,.449,2.215,3.39,3.39,0,0,0,1.269,1.461,3.453,3.453,0,0,0,1.878.514,3.231,3.231,0,0,0,1.734-.466,2.336,2.336,0,0,0,.834-.866v1.2h2.392v-8.138Zm-.489,5.811a1.659,1.659,0,0,1-1.372.61,1.706,1.706,0,0,1-1.405-.6,2.7,2.7,0,0,1-.49-1.742,2.808,2.808,0,0,1,.506-1.781,1.827,1.827,0,0,1,2.761-.025,2.806,2.806,0,0,1,.489,1.775,2.766,2.766,0,0,1-.489,1.765" transform="translate(-1388.013 -83.439)"/><rect width="2.504" height="11.43" transform="translate(24.667 94.669)"/><path d="M1425.233,189.538v-4.929q0-3.42-2.874-3.419a3.239,3.239,0,0,0-1.726.458,2.991,2.991,0,0,0-1.017,1.065l-.145-1.314h-2.28c.053.385.089.773.1,1.164s.023.778.023,1.164v5.811h2.423v-4.559a1.94,1.94,0,0,1,.483-1.38,1.675,1.675,0,0,1,1.285-.514,1.2,1.2,0,0,1,.986.385,1.982,1.982,0,0,1,.312,1.252v4.816Z" transform="translate(-1388.013 -83.439)"/><path d="M1430.193,178.7l-2.424.787v1.91h-1.541v1.814h1.541v3.211a3.378,3.378,0,0,0,.794,2.383,2.986,2.986,0,0,0,2.305.859,5.126,5.126,0,0,0,.722-.048,3.094,3.094,0,0,0,.674-.177v-1.862c-.16.032-.3.056-.425.072a2.755,2.755,0,0,1-.377.025,1.617,1.617,0,0,1-.626-.121.969.969,0,0,1-.466-.409,1.464,1.464,0,0,1-.177-.771v-3.162h2.071V181.4h-2.071Z" transform="translate(-1388.013 -83.439)"/><path d="M1440.805,185.316a4.951,4.951,0,0,0-.45-2.191,3.335,3.335,0,0,0-1.285-1.429,3.73,3.73,0,0,0-1.974-.506,3.949,3.949,0,0,0-2.078.538,3.8,3.8,0,0,0-1.4,1.5,4.627,4.627,0,0,0-.514,2.215,4.531,4.531,0,0,0,.53,2.247,3.6,3.6,0,0,0,1.517,1.461,5.027,5.027,0,0,0,2.352.514,5.746,5.746,0,0,0,1.718-.265,4.5,4.5,0,0,0,1.445-.73l-.643-1.638a4.142,4.142,0,0,1-1.157.594,3.954,3.954,0,0,1-1.267.209,2.081,2.081,0,0,1-1.645-.609,2.618,2.618,0,0,1-.516-1.558h5.372Zm-3.644-2.424a1.408,1.408,0,0,1,1.179.522,2.019,2.019,0,0,1,.373,1.051h-3.229a2.26,2.26,0,0,1,.384-.971,1.528,1.528,0,0,1,1.293-.6" transform="translate(-1388.013 -83.439)"/><path d="M1448.157,182.553a2.5,2.5,0,0,0-.843-.873,3.186,3.186,0,0,0-1.758-.49,3.462,3.462,0,0,0-1.878.514,3.554,3.554,0,0,0-1.284,1.42,5.1,5.1,0,0,0,0,4.262,3.411,3.411,0,0,0,3.162,1.927,3.033,3.033,0,0,0,1.228-.249,3.126,3.126,0,0,0,.972-.65,3,3,0,0,0,.4-.508v1.438a1.932,1.932,0,0,1-.514,1.478,2.206,2.206,0,0,1-1.557.481,6.246,6.246,0,0,1-1.461-.176,6.577,6.577,0,0,1-1.461-.546l-.369,1.8a7.167,7.167,0,0,0,3.371.755,4.739,4.739,0,0,0,3.283-1.012,3.8,3.8,0,0,0,1.116-2.969V181.4h-2.408Zm-.506,4.328a1.74,1.74,0,0,1-1.389.586,1.775,1.775,0,0,1-1.4-.594,2.785,2.785,0,0,1-.008-3.235,1.781,1.781,0,0,1,1.412-.586,1.721,1.721,0,0,1,1.4.594,2.857,2.857,0,0,1-.008,3.235" transform="translate(-1388.013 -83.439)"/><path d="M1452.507,183.727v5.81h2.424v-4.253a2.232,2.232,0,0,1,.232-1.052,1.651,1.651,0,0,1,.658-.682,2.177,2.177,0,0,1,1.084-.241,2.8,2.8,0,0,1,1.187.274l.017-2.216a2.4,2.4,0,0,0-.377-.112,2.215,2.215,0,0,0-.49-.049,2.65,2.65,0,0,0-1.661.562,2.325,2.325,0,0,0-.753,1.051l-.17-1.42h-2.28q.079.577.1,1.164c.015.391.024.778.024,1.164" transform="translate(-1388.013 -83.439)"/><path d="M1464.691,188.335v1.2h2.392V181.4h-2.392v1.145a2.448,2.448,0,0,0-.835-.872,3.153,3.153,0,0,0-1.734-.482,3.3,3.3,0,0,0-1.87.538,3.6,3.6,0,0,0-1.268,1.509,5.2,5.2,0,0,0-.458,2.24,5.128,5.128,0,0,0,.449,2.215,3.406,3.406,0,0,0,1.268,1.461,3.469,3.469,0,0,0,1.879.513,3.237,3.237,0,0,0,1.734-.465,2.362,2.362,0,0,0,.835-.866m-1.862-.515a1.7,1.7,0,0,1-1.405-.6,2.7,2.7,0,0,1-.49-1.741,2.807,2.807,0,0,1,.506-1.782,1.672,1.672,0,0,1,1.389-.643,1.651,1.651,0,0,1,1.371.619,2.8,2.8,0,0,1,.491,1.773,2.76,2.76,0,0,1-.491,1.766,1.658,1.658,0,0,1-1.371.61" transform="translate(-1388.013 -83.439)"/><rect width="2.424" height="11.815" transform="translate(81.027 94.284)"/><path d="M1418.09,197.628a4.5,4.5,0,0,1,1.533.264,5.939,5.939,0,0,1,1.5.843l.786-1.8a4.642,4.642,0,0,0-1.7-.97,6.738,6.738,0,0,0-2.167-.346,6.1,6.1,0,0,0-3.035.723,4.895,4.895,0,0,0-1.974,2.039,6.533,6.533,0,0,0-.69,3.082,6.624,6.624,0,0,0,.69,3.106,4.883,4.883,0,0,0,1.974,2.046,6.088,6.088,0,0,0,3.035.723,6.765,6.765,0,0,0,2.167-.345,4.617,4.617,0,0,0,1.7-.972l-.786-1.8a5.872,5.872,0,0,1-1.5.842,4.458,4.458,0,0,1-1.533.266,2.918,2.918,0,0,1-2.359-.988,4.345,4.345,0,0,1-.835-2.881,4.278,4.278,0,0,1,.835-2.865,2.939,2.939,0,0,1,2.359-.972" transform="translate(-1388.013 -83.439)"/><path d="M1429.487,199.37a4.644,4.644,0,0,0-2.247-.522,4.715,4.715,0,0,0-2.279.522,3.621,3.621,0,0,0-1.485,1.468,5.117,5.117,0,0,0,0,4.5,3.564,3.564,0,0,0,1.485,1.469,4.771,4.771,0,0,0,2.279.514,4.7,4.7,0,0,0,2.247-.514,3.559,3.559,0,0,0,1.485-1.469,5.117,5.117,0,0,0,0-4.5,3.616,3.616,0,0,0-1.485-1.468m-.882,5.522a1.666,1.666,0,0,1-1.365.586,1.7,1.7,0,0,1-1.4-.586,2.807,2.807,0,0,1-.483-1.806,2.752,2.752,0,0,1,.49-1.79,1.71,1.71,0,0,1,1.389-.586,1.666,1.666,0,0,1,1.365.586,2.788,2.788,0,0,1,.481,1.79,2.82,2.82,0,0,1-.481,1.806" transform="translate(-1388.013 -83.439)"/><path d="M1438.092,198.848a3.232,3.232,0,0,0-1.727.458,2.982,2.982,0,0,0-1.017,1.065l-.145-1.315h-2.28c.053.386.089.774.1,1.165s.024.778.024,1.164v5.81h2.423v-4.559a1.928,1.928,0,0,1,.484-1.38,1.672,1.672,0,0,1,1.284-.514,1.2,1.2,0,0,1,.987.385,1.992,1.992,0,0,1,.312,1.252V207.2h2.424v-4.928q0-3.418-2.873-3.419" transform="translate(-1388.013 -83.439)"/><path d="M1447.1,202.412l-1.365-.305a1.966,1.966,0,0,1-.713-.289.525.525,0,0,1-.2-.433.649.649,0,0,1,.337-.579,1.764,1.764,0,0,1,.931-.209,3.86,3.86,0,0,1,1.259.225,5.337,5.337,0,0,1,1.278.658l.673-1.621a5.4,5.4,0,0,0-1.492-.746,5.492,5.492,0,0,0-1.7-.265,4.6,4.6,0,0,0-1.83.338,2.938,2.938,0,0,0-1.227.922,2.162,2.162,0,0,0-.443,1.341,2.031,2.031,0,0,0,.554,1.492,3.322,3.322,0,0,0,1.742.8l1.332.321a2.644,2.644,0,0,1,.851.313.545.545,0,0,1,.241.474.618.618,0,0,1-.337.554,1.909,1.909,0,0,1-.963.2,5.285,5.285,0,0,1-1.6-.249,4.924,4.924,0,0,1-1.436-.714l-.658,1.685a6.058,6.058,0,0,0,3.675.995,4.243,4.243,0,0,0,2.545-.673,2.149,2.149,0,0,0,.923-1.83,2.117,2.117,0,0,0-.562-1.541,3.634,3.634,0,0,0-1.814-.867" transform="translate(-1388.013 -83.439)"/><path d="M1456.3,203.551a1.952,1.952,0,0,1-.466,1.365,1.546,1.546,0,0,1-1.2.514,1.222,1.222,0,0,1-.972-.361,1.675,1.675,0,0,1-.312-1.117v-4.895h-2.424V203.9a3.779,3.779,0,0,0,.753,2.568,3.325,3.325,0,0,0,3.878.41,2.614,2.614,0,0,0,.827-.876V207.2h2.359v-8.139h-2.44Z" transform="translate(-1388.013 -83.439)"/><rect width="2.425" height="11.815" transform="translate(72.68 111.942)"/><path d="M1468.142,196.36l-2.424.786v1.911h-1.541v1.814h1.541v3.21a3.379,3.379,0,0,0,.794,2.384,2.988,2.988,0,0,0,2.305.859,5.136,5.136,0,0,0,.722-.048,3.107,3.107,0,0,0,.674-.177v-1.863c-.16.033-.3.057-.426.073a2.9,2.9,0,0,1-.376.025,1.621,1.621,0,0,1-.627-.121.969.969,0,0,1-.465-.41,1.461,1.461,0,0,1-.177-.77v-3.162h2.071v-1.814h-2.071Z" transform="translate(-1388.013 -83.439)"/><path d="M1477.58,199.37a4.643,4.643,0,0,0-2.247-.522,4.712,4.712,0,0,0-2.279.522,3.636,3.636,0,0,0-1.486,1.468,5.125,5.125,0,0,0,0,4.5,3.578,3.578,0,0,0,1.486,1.469,4.769,4.769,0,0,0,2.279.514,4.7,4.7,0,0,0,2.247-.514,3.558,3.558,0,0,0,1.485-1.469,5.116,5.116,0,0,0,0-4.5,3.614,3.614,0,0,0-1.485-1.468m-.882,5.522a1.667,1.667,0,0,1-1.365.586,1.7,1.7,0,0,1-1.4-.586,2.807,2.807,0,0,1-.483-1.806,2.746,2.746,0,0,1,.49-1.79,1.711,1.711,0,0,1,1.389-.586,1.667,1.667,0,0,1,1.365.586,2.789,2.789,0,0,1,.481,1.79,2.82,2.82,0,0,1-.481,1.806" transform="translate(-1388.013 -83.439)"/><path d="M1485.88,198.864a2.656,2.656,0,0,0-1.662.561,2.338,2.338,0,0,0-.753,1.052l-.17-1.421h-2.279q.079.577.1,1.165c.017.391.025.778.025,1.164v5.81h2.423v-4.254a2.227,2.227,0,0,1,.233-1.051,1.652,1.652,0,0,1,.658-.682,2.176,2.176,0,0,1,1.083-.242,2.822,2.822,0,0,1,1.188.274l.017-2.215a2.445,2.445,0,0,0-.378-.113,2.27,2.27,0,0,0-.489-.048" transform="translate(-1388.013 -83.439)"/><path d="M1493.328,200.2a2.452,2.452,0,0,0-.835-.873,3.158,3.158,0,0,0-1.733-.481,3.3,3.3,0,0,0-1.87.538,3.586,3.586,0,0,0-1.268,1.509,5.2,5.2,0,0,0-.458,2.239,5.106,5.106,0,0,0,.449,2.215,3.394,3.394,0,0,0,1.268,1.461,3.456,3.456,0,0,0,1.879.514,3.226,3.226,0,0,0,1.733-.466,2.347,2.347,0,0,0,.835-.866v1.2h2.393v-8.138h-2.393Zm-.49,4.666a1.657,1.657,0,0,1-1.371.61,1.709,1.709,0,0,1-1.406-.6,2.706,2.706,0,0,1-.489-1.742,2.8,2.8,0,0,1,.506-1.781,1.666,1.666,0,0,1,1.389-.643,1.649,1.649,0,0,1,1.371.618,2.8,2.8,0,0,1,.49,1.775,2.763,2.763,0,0,1-.49,1.765" transform="translate(-1388.013 -83.439)"/><path d="M1456.516,145.294V103.172h-19.207v22.915a19.207,19.207,0,0,0,19.207,19.207" transform="translate(-1388.013 -83.439)"/></svg>