<svg xmlns="http://www.w3.org/2000/svg" width="250.225" height="86.22" viewBox="0 0 250.225 86.22"><path d="M514.912,157.5c-.555,2.3-1.106,4.586-1.658,6.873a2.52,2.52,0,0,0-.1.39c-.112,1.509-1.077,2.158-2.426,2.453a23.057,23.057,0,0,1-6.417.277,22.776,22.776,0,0,1-2.685-.424,5.877,5.877,0,0,1-.882-.315c.786-2.987,1.559-5.912,2.324-8.839q4.245-16.245,8.486-32.492c.166-.635.348-1.266.484-1.908a.711.711,0,0,1,.728-.662c1.158-.068,2.315-.221,3.473-.229,3.526-.025,7.052-.011,10.578.02a20.2,20.2,0,0,1,2.426.225c.193.025.482.181.526.334.326,1.127.6,2.269.9,3.436a16.58,16.58,0,0,0-6.077,4.233,31.775,31.775,0,0,0-5.125,7.355,15.971,15.971,0,0,0-.912,3.218q-.954,3.638-1.894,7.281c-.048.184-.077.374-.144.71,1.009,0,1.972.025,2.931-.023.169-.008.373-.295.475-.5,1.341-2.651,2.616-5.336,4.01-7.959a24.634,24.634,0,0,1,5.46-7.374c.768-.661,1.649-1.191,2.569-1.845.339,1.3.641,2.429.931,3.564q3.924,15.4,7.858,30.792c.143.558.021.812-.523.876-1.381.161-2.76.345-4.145.462a24.254,24.254,0,0,1-6.138-.12,9.239,9.239,0,0,1-1.181-.288,2.21,2.21,0,0,1-1.623-1.768c-.574-2.46-1.236-4.9-1.861-7.348-.071-.278-.157-.464-.526-.462-3.2.017-6.4.011-9.592.013A2.056,2.056,0,0,0,514.912,157.5Z" transform="translate(-358.554 -101.89)"/><path d="M403.755,105.066c0,.813-.02,1.627.008,2.44.014.432-.135.561-.566.566-1.9.023-3.8.033-5.69.134a33.873,33.873,0,0,0-10.949,2.086,19.844,19.844,0,0,0-6.222,4.039,43.2,43.2,0,0,0-7.408,9.725c-1.739,2.936-3.454,5.893-5.036,8.916a28.265,28.265,0,0,0-3.022,8.907,21.256,21.256,0,0,0,.6,9.074,41.467,41.467,0,0,0,4.5,10.008c1.886,3.139,3.78,6.275,5.756,9.358a29.187,29.187,0,0,0,5.2,5.969,20.216,20.216,0,0,0,10.593,4.87c2.421.376,4.878.542,7.324.729,1.464.112,2.94.1,4.411.109.376,0,.509.12.506.5-.014,1.685-.011,3.37,0,5.055,0,.333-.1.491-.462.493a58.5,58.5,0,0,1-15.663-1.543,25.911,25.911,0,0,1-9.7-4.9,37.575,37.575,0,0,1-8.24-9.477c-2.327-3.75-4.547-7.57-6.7-11.42a36.049,36.049,0,0,1-3.935-10.608,26.541,26.541,0,0,1,.624-12.73,48.79,48.79,0,0,1,5.171-11.422c1.864-3.129,3.75-6.247,5.72-9.31a35.449,35.449,0,0,1,6.083-7.107,26.981,26.981,0,0,1,13.132-6.471,48.8,48.8,0,0,1,8.117-.927c1.742-.048,3.484-.067,5.225-.123.472-.016.659.125.638.618C403.73,103.438,403.755,104.252,403.755,105.066Z" transform="translate(-358.554 -101.89)"/><path d="M564.716,188.11v-5.9c1.023-.1,2.022-.175,3.011-.313a30.593,30.593,0,0,0,8.662-2.7,141.237,141.237,0,0,0,14.03-7.419,29.537,29.537,0,0,0,7.038-5.793,20.43,20.43,0,0,0,4.438-9.5,41.456,41.456,0,0,0,.851-7.831c.028-2.051.109-4.1.06-6.152a39.42,39.42,0,0,0-1.852-12.336,19.051,19.051,0,0,0-3.746-6.4,33.317,33.317,0,0,0-8.672-6.664c-2.737-1.554-5.536-3-8.317-4.474a49.333,49.333,0,0,0-8.187-3.531,22.5,22.5,0,0,0-7.179-1.191V101.89c1.153.1,2.286.162,3.407.31a36.754,36.754,0,0,1,11.918,3.859q6.242,3.185,12.37,6.588a38.153,38.153,0,0,1,6.466,4.652,25.829,25.829,0,0,1,6.535,8.529,32.366,32.366,0,0,1,2.635,9.278,78.638,78.638,0,0,1,.526,13.614,42.084,42.084,0,0,1-2.149,12.99,25.668,25.668,0,0,1-4.383,7.769,33.548,33.548,0,0,1-9.473,7.772c-4.26,2.427-8.61,4.7-12.992,6.906a36.882,36.882,0,0,1-11.673,3.692C566.955,187.995,565.853,188.024,564.716,188.11Z" transform="translate(-358.554 -101.89)"/><path d="M444,133.627v6.551h7.4c2.1,0,3.052.858,3.375,2.944a9.339,9.339,0,0,1-.592,4.89,2.585,2.585,0,0,1-2.754,1.864c-2.287,0-4.574.016-6.861-.011a1.021,1.021,0,0,0-1.078.646,41.9,41.9,0,0,1-4.4,7.28,12.368,12.368,0,0,1-6,4.572c-.529.162-1.081.25-1.7.39-.013-.3-.03-.505-.03-.708q0-18.885,0-37.769a5.2,5.2,0,0,1,.091-.98,1.192,1.192,0,0,1,1.113-1.01,7.867,7.867,0,0,1,.813-.024h22.035c1.014,0,1.231.093,1.448,1.11a23.849,23.849,0,0,1,.444,3.381,20.961,20.961,0,0,1-.053,2.9,1.424,1.424,0,0,1-.445.8c-.966.949-1.979,1.848-2.935,2.8a1.079,1.079,0,0,1-.844.377c-2.771-.011-5.542-.006-8.314-.006Z" transform="translate(-358.554 -101.89)"/><path d="M491.445,163.935a15.791,15.791,0,0,1-4.429,2.321,25.188,25.188,0,0,1-8.393,1.244q-5.289,0-10.579,0c-.29,0-.581-.019-.87-.04a2.624,2.624,0,0,1-2.694-2.911q-.008-5,0-9.991V131.129a8.713,8.713,0,0,1,6,1.407,18.034,18.034,0,0,1,5.154,5.593,95.751,95.751,0,0,1,5.4,10.232,64.938,64.938,0,0,0,6.315,11.17c1.143,1.5,2.522,2.82,3.8,4.218A1.492,1.492,0,0,0,491.445,163.935Z" transform="translate(-358.554 -101.89)"/><path d="M495.185,160.184a16.49,16.49,0,0,1-3.738-3.907,67.5,67.5,0,0,1-5.566-10.012,104.781,104.781,0,0,0-5.71-10.8,26.172,26.172,0,0,0-5.572-6.491,14.2,14.2,0,0,0-10.026-3.213,2.943,2.943,0,0,1,2.55-3.479c.444-.028.891-.023,1.337-.022,3.642,0,7.286-.038,10.928.034a25.336,25.336,0,0,1,8.95,1.69,15.675,15.675,0,0,1,9.681,10.879,34.932,34.932,0,0,1,1.044,11.1,30.5,30.5,0,0,1-2.218,10.95C496.374,158,495.77,159.039,495.185,160.184Z" transform="translate(-358.554 -101.89)"/><path d="M395.613,131.074a9.067,9.067,0,0,1,5.323,1.945,19.859,19.859,0,0,1,5.428,6.581c1.99,3.659,3.822,7.4,5.72,11.114.553,1.079,1.1,2.16,1.681,3.3a30.374,30.374,0,0,1-5.867.661v.708c0,3.447-.015,6.894.014,10.341a.962.962,0,0,1-.781,1.1,21.084,21.084,0,0,1-2.621.461,28.3,28.3,0,0,1-7.122-.088c-.172-.028-.342-.064-.51-.106-1.155-.291-1.265-.433-1.265-1.614v-34.4Z" transform="translate(-358.554 -101.89)"/><path d="M418.742,152.216c-1.039-2.083-2.077-4.131-3.087-6.192a89.035,89.035,0,0,0-6.422-11.794,24.513,24.513,0,0,0-4.775-5.277,14.279,14.279,0,0,0-8.412-3.212c-.115-.006-.229-.023-.488-.051a13.294,13.294,0,0,1,.243-2.1,1.555,1.555,0,0,1,1.681-1.074c4.823.026,9.649-.019,14.467.144a18.1,18.1,0,0,1,8.392,2.209,11.9,11.9,0,0,1,5.878,8.3,18.3,18.3,0,0,1-3.7,16.077A11.446,11.446,0,0,1,418.742,152.216Z" transform="translate(-358.554 -101.89)"/><path d="M403.593,172.486c0,1.413,0,2.765,0,4.117,0,.45-.331.366-.578.345-2.137-.18-4.287-.28-6.407-.586a26.864,26.864,0,0,1-8.527-2.718A27.656,27.656,0,0,1,380,167.175a44.253,44.253,0,0,1-6.273-9.542,30.724,30.724,0,0,1-3.426-12.074,26.892,26.892,0,0,1,1.614-10.6,45.686,45.686,0,0,1,6.108-11.387,33.1,33.1,0,0,1,4.717-5.246,25.22,25.22,0,0,1,9.5-5.375,35.346,35.346,0,0,1,9.246-1.527q.84-.032,1.68-.073c.277-.015.437.064.434.384-.009,1.335,0,2.67,0,4.078-.828.043-1.629.083-2.431.126a27.066,27.066,0,0,0-11.337,2.82A19.882,19.882,0,0,0,385.335,122a36.82,36.82,0,0,0-9.439,15.179,21.534,21.534,0,0,0-.165,13.411,38.364,38.364,0,0,0,6.753,12.638,23.22,23.22,0,0,0,7.524,6.411,22.88,22.88,0,0,0,7.613,2.349c1.8.236,3.619.312,5.429.459C403.2,172.457,403.356,172.468,403.593,172.486Z" transform="translate(-358.554 -101.89)"/><path d="M564.823,111.4a28.415,28.415,0,0,1,8.518,1.406,40.9,40.9,0,0,1,7.879,3.5,60.055,60.055,0,0,1,5.642,3.613,26.865,26.865,0,0,1,8.741,10.294,28.794,28.794,0,0,1,2.542,9,36.841,36.841,0,0,1-.9,14.094,26.315,26.315,0,0,1-5.046,9.87,36.833,36.833,0,0,1-9.743,8.08,44.942,44.942,0,0,1-8.663,4.14,27.328,27.328,0,0,1-8.461,1.573c-.134,0-.268-.014-.451-.023v-4.29c.957-.1,1.916-.167,2.868-.291a27.323,27.323,0,0,0,7.688-2.324,45.075,45.075,0,0,0,9.071-5.415,22.9,22.9,0,0,0,9.043-14.863,32.8,32.8,0,0,0-.616-14.256,20.8,20.8,0,0,0-4.431-8.234,39.927,39.927,0,0,0-19.1-10.968,35.614,35.614,0,0,0-4.026-.467c-.429-.036-.567-.149-.56-.575C564.837,113.988,564.823,112.713,564.823,111.4Z" transform="translate(-358.554 -101.89)"/><path d="M559.142,152.437c-.973-1.906-1.963-3.8-2.914-5.718-1.809-3.648-3.5-7.357-5.667-10.817a32.823,32.823,0,0,0-4.08-5.338.966.966,0,0,1-.237-.6c-.017-2.052,0-4.1-.018-6.156a.951.951,0,0,1,.737-1.038,12.553,12.553,0,0,1,2.2-.467,37.058,37.058,0,0,1,8,.1c.1.012.192.024.286.043,1.792.357,1.858.437,1.858,2.256v27.694Z" transform="translate(-358.554 -101.89)"/><path d="M569.656,167.418a6.463,6.463,0,0,1-.814.1c-6.374.006-12.749-.022-19.122.019a3.269,3.269,0,0,1-3.376-2.934,4.818,4.818,0,0,1-.1-.98q-.009-12.052-.005-24.106v-.579c.184.281.306.431.392.6,1.823,3.573,3.661,7.138,5.457,10.725a62.88,62.88,0,0,0,5.529,9.57,19.168,19.168,0,0,0,6.9,6.08A17.283,17.283,0,0,0,569.656,167.418Z" transform="translate(-358.554 -101.89)"/><path d="M435.087,167.486c1.26-.723,2.619-1.381,3.844-2.231a24.377,24.377,0,0,0,6.345-7.167c.365-.568.591-1.374,1.107-1.654a4.724,4.724,0,0,1,2.05-.1c2.363-.005,4.727.021,7.09-.016a1.31,1.31,0,0,1,1.4.961,11.112,11.112,0,0,1,.623,4.565,42.572,42.572,0,0,1-.713,4.737,1.1,1.1,0,0,1-1.22.926q-10.141-.02-20.282-.009C435.216,167.5,435.1,167.487,435.087,167.486Z" transform="translate(-358.554 -101.89)"/><path d="M571.05,162.031c-3.8.209-7.492-2.756-10-6.731.187-.015.347-.039.506-.039,2.479,0,4.958.02,7.437-.015a1.193,1.193,0,0,1,1.326.879,29.8,29.8,0,0,1,.712,3.5A18.2,18.2,0,0,1,571.05,162.031Z" transform="translate(-358.554 -101.89)"/></svg>